%TF.GenerationSoftware,KiCad,Pcbnew,8.0.1*%
%TF.CreationDate,2024-06-22T21:51:16+08:00*%
%TF.ProjectId,car,6361722e-6b69-4636-9164-5f7063625858,rev?*%
%TF.SameCoordinates,Original*%
%TF.FileFunction,Soldermask,Bot*%
%TF.FilePolarity,Negative*%
%FSLAX46Y46*%
G04 Gerber Fmt 4.6, Leading zero omitted, Abs format (unit mm)*
G04 Created by KiCad (PCBNEW 8.0.1) date 2024-06-22 21:51:16*
%MOMM*%
%LPD*%
G01*
G04 APERTURE LIST*
G04 Aperture macros list*
%AMRoundRect*
0 Rectangle with rounded corners*
0 $1 Rounding radius*
0 $2 $3 $4 $5 $6 $7 $8 $9 X,Y pos of 4 corners*
0 Add a 4 corners polygon primitive as box body*
4,1,4,$2,$3,$4,$5,$6,$7,$8,$9,$2,$3,0*
0 Add four circle primitives for the rounded corners*
1,1,$1+$1,$2,$3*
1,1,$1+$1,$4,$5*
1,1,$1+$1,$6,$7*
1,1,$1+$1,$8,$9*
0 Add four rect primitives between the rounded corners*
20,1,$1+$1,$2,$3,$4,$5,0*
20,1,$1+$1,$4,$5,$6,$7,0*
20,1,$1+$1,$6,$7,$8,$9,0*
20,1,$1+$1,$8,$9,$2,$3,0*%
G04 Aperture macros list end*
%ADD10R,1.700000X1.700000*%
%ADD11O,1.700000X1.700000*%
%ADD12RoundRect,0.250000X0.600000X0.725000X-0.600000X0.725000X-0.600000X-0.725000X0.600000X-0.725000X0*%
%ADD13O,1.700000X1.950000*%
%ADD14R,1.800000X4.400000*%
%ADD15O,1.800000X4.000000*%
%ADD16O,4.000000X1.800000*%
%ADD17C,0.650000*%
%ADD18O,2.100000X1.000000*%
%ADD19O,1.800000X1.000000*%
%ADD20C,5.600000*%
%ADD21R,1.400000X1.400000*%
%ADD22C,1.400000*%
%ADD23RoundRect,0.249900X-0.600100X0.600100X-0.600100X-0.600100X0.600100X-0.600100X0.600100X0.600100X0*%
%ADD24C,1.700000*%
%ADD25C,0.770000*%
%ADD26C,1.650000*%
%ADD27C,2.000000*%
%ADD28RoundRect,0.250000X0.725000X-0.600000X0.725000X0.600000X-0.725000X0.600000X-0.725000X-0.600000X0*%
%ADD29O,1.950000X1.700000*%
%ADD30C,1.524000*%
G04 APERTURE END LIST*
D10*
%TO.C,UART2*%
X183000000Y-56200000D03*
D11*
X183000000Y-53660000D03*
%TD*%
D12*
%TO.C,J4*%
X203500000Y-61300000D03*
D13*
X201000000Y-61300000D03*
X198500000Y-61300000D03*
X196000000Y-61300000D03*
X193500000Y-61300000D03*
X191000000Y-61300000D03*
%TD*%
D10*
%TO.C,CH4*%
X209075000Y-104400000D03*
D11*
X211615000Y-104400000D03*
X214155000Y-104400000D03*
%TD*%
D10*
%TO.C,CH2*%
X209075000Y-112100000D03*
D11*
X211615000Y-112100000D03*
X214155000Y-112100000D03*
%TD*%
D10*
%TO.C,UART5*%
X169200000Y-56200000D03*
D11*
X169200000Y-53660000D03*
%TD*%
D10*
%TO.C,PB2 PB3*%
X131660000Y-92500000D03*
D11*
X134200000Y-92500000D03*
X131660000Y-95040000D03*
X134200000Y-95040000D03*
X131660000Y-97580000D03*
X134200000Y-97580000D03*
X131660000Y-100120000D03*
X134200000Y-100120000D03*
X131660000Y-102660000D03*
X134200000Y-102660000D03*
X131660000Y-105200000D03*
X134200000Y-105200000D03*
X131660000Y-107740000D03*
X134200000Y-107740000D03*
X131660000Y-110280000D03*
X134200000Y-110280000D03*
%TD*%
D14*
%TO.C,J1*%
X202345000Y-132230000D03*
D15*
X208145000Y-132230000D03*
D16*
X205345000Y-127430000D03*
%TD*%
D10*
%TO.C,UART1*%
X164500000Y-56275000D03*
D11*
X164500000Y-53735000D03*
%TD*%
D17*
%TO.C,P1*%
X135695000Y-123520000D03*
X135695000Y-129300000D03*
D18*
X136800000Y-122090000D03*
D19*
X132620000Y-122090000D03*
D18*
X136800000Y-130730000D03*
D19*
X132620000Y-130730000D03*
%TD*%
D20*
%TO.C,H4*%
X211800000Y-143500000D03*
%TD*%
%TO.C,H2*%
X211700000Y-55600000D03*
%TD*%
%TO.C,H3*%
X134600000Y-142900000D03*
%TD*%
D21*
%TO.C,\u7535\u6E90*%
X191107500Y-146050000D03*
D22*
X188607500Y-146050000D03*
X186107500Y-146050000D03*
X191107500Y-142750000D03*
X188607500Y-142750000D03*
X186107500Y-142750000D03*
%TD*%
D10*
%TO.C,GND*%
X194720000Y-122800000D03*
D11*
X197260000Y-122800000D03*
X199800000Y-122800000D03*
%TD*%
D23*
%TO.C,BZ2*%
X201800000Y-87300000D03*
D24*
X201800000Y-94900000D03*
%TD*%
D10*
%TO.C,DIO CLK 3.3 GND*%
X138600000Y-115125000D03*
D11*
X136060000Y-115125000D03*
X133520000Y-115125000D03*
X130980000Y-115125000D03*
%TD*%
D10*
%TO.C,5V*%
X194660000Y-119000000D03*
D11*
X197200000Y-119000000D03*
X199740000Y-119000000D03*
%TD*%
D10*
%TO.C,EIGHT-WAY*%
X134100000Y-67960000D03*
D11*
X134100000Y-70500000D03*
X134100000Y-73040000D03*
X134100000Y-75580000D03*
%TD*%
D10*
%TO.C,J3*%
X214560000Y-81025000D03*
D11*
X212020000Y-81025000D03*
X209480000Y-81025000D03*
X206940000Y-81025000D03*
X204400000Y-81025000D03*
X201860000Y-81025000D03*
%TD*%
D25*
%TO.C,U8*%
X199715000Y-69725000D03*
X201015000Y-69725000D03*
X202315000Y-69725000D03*
X199715000Y-68425000D03*
X201015000Y-68425000D03*
X202315000Y-68425000D03*
%TD*%
D26*
%TO.C,OLED1*%
X171220000Y-86602000D03*
X173760000Y-86600000D03*
X176300000Y-86600000D03*
X178840000Y-86600000D03*
%TD*%
D10*
%TO.C,CH1*%
X209075000Y-108300000D03*
D11*
X211615000Y-108300000D03*
X214155000Y-108300000D03*
%TD*%
D25*
%TO.C,U5*%
X151200000Y-69900000D03*
X152500000Y-69900000D03*
X153800000Y-69900000D03*
X151200000Y-68600000D03*
X152500000Y-68600000D03*
X153800000Y-68600000D03*
%TD*%
D10*
%TO.C,CH5*%
X209095000Y-100530000D03*
D11*
X211635000Y-100530000D03*
X214175000Y-100530000D03*
%TD*%
D10*
%TO.C,J16*%
X157380000Y-81025000D03*
D11*
X154840000Y-81025000D03*
X152300000Y-81025000D03*
X149760000Y-81025000D03*
X147220000Y-81025000D03*
X144680000Y-81025000D03*
%TD*%
D27*
%TO.C,J13*%
X210700000Y-123040000D03*
X210700000Y-117960000D03*
%TD*%
D10*
%TO.C,3.3V*%
X153375000Y-118900000D03*
D11*
X155915000Y-118900000D03*
X158455000Y-118900000D03*
%TD*%
D28*
%TO.C,K210*%
X212100000Y-94200000D03*
D29*
X212100000Y-91700000D03*
X212100000Y-89200000D03*
X212100000Y-86700000D03*
%TD*%
D30*
%TO.C,MPU6050*%
X141800000Y-92100000D03*
X141800000Y-94640000D03*
X141800000Y-97180000D03*
X141800000Y-99720000D03*
X141800000Y-102260000D03*
X141800000Y-104800000D03*
X141800000Y-107340000D03*
X141800000Y-109880000D03*
%TD*%
D10*
%TO.C,UART4*%
X173800000Y-56200000D03*
D11*
X173800000Y-53660000D03*
%TD*%
D10*
%TO.C,GND*%
X153420000Y-122625000D03*
D11*
X155960000Y-122625000D03*
X158500000Y-122625000D03*
%TD*%
D12*
%TO.C,J2*%
X155750000Y-61350000D03*
D13*
X153250000Y-61350000D03*
X150750000Y-61350000D03*
X148250000Y-61350000D03*
X145750000Y-61350000D03*
X143250000Y-61350000D03*
%TD*%
D20*
%TO.C,H1*%
X134900000Y-55900000D03*
%TD*%
D10*
%TO.C,UART3*%
X178400000Y-56200000D03*
D11*
X178400000Y-53660000D03*
%TD*%
M02*
