M48
; DRILL file {KiCad 8.0.1} date 2024-06-22T21:51:16+0800
; FORMAT={-:-/ absolute / inch / decimal}
; #@! TF.CreationDate,2024-06-22T21:51:16+08:00
; #@! TF.GenerationSoftware,Kicad,Pcbnew,8.0.1
; #@! TF.FileFunction,Plated,1,2,PTH
FMAT,2
INCH
; #@! TA.AperFunction,Plated,PTH,ViaDrill
T1C0.0118
; #@! TA.AperFunction,Plated,PTH,ComponentDrill
T2C0.0118
; #@! TA.AperFunction,Plated,PTH,ComponentDrill
T3C0.0130
; #@! TA.AperFunction,Plated,PTH,ViaDrill
T4C0.0157
; #@! TA.AperFunction,Plated,PTH,ComponentDrill
T5C0.0236
; #@! TA.AperFunction,Plated,PTH,ComponentDrill
T6C0.0315
; #@! TA.AperFunction,Plated,PTH,ComponentDrill
T7C0.0354
; #@! TA.AperFunction,Plated,PTH,ComponentDrill
T8C0.0360
; #@! TA.AperFunction,Plated,PTH,ComponentDrill
T9C0.0374
; #@! TA.AperFunction,Plated,PTH,ComponentDrill
T10C0.0394
; #@! TA.AperFunction,Plated,PTH,ComponentDrill
T11C0.0512
; #@! TA.AperFunction,Plated,PTH,ComponentDrill
T12C0.1260
%
G90
G05
T1
X5.1811Y-3.4764
X5.315Y-4.7795
X5.3543Y-4.1339
X5.378Y-4.0118
X5.3858Y-2.937
X5.4094Y-4.2677
X5.4232Y-3.8406
X5.4508Y-5.0861
X5.4567Y-4.7323
X5.4685Y-4.9134
X5.4961Y-4.2402
X5.5236Y-4.6496
X5.5315Y-5.3346
X5.6053Y-4.9203
X5.6496Y-3.8819
X5.6535Y-4.1102
X5.6614Y-4.0
X5.689Y-4.8071
X5.7913Y-4.8071
X5.7965Y-4.9452
X5.7992Y-4.1914
X5.8465Y-2.6102
X5.8465Y-5.3465
X5.8504Y-3.0197
X5.878Y-2.5748
X5.9685Y-2.5276
X5.9705Y-2.9075
X5.9921Y-3.0213
X5.9961Y-3.1102
X6.0157Y-3.1417
X6.0197Y-2.9016
X6.0551Y-3.0591
X6.0692Y-3.022
X6.0787Y-2.5276
X6.122Y-5.3386
X6.1378Y-2.6811
X6.1378Y-2.7126
X6.1496Y-3.1102
X6.1611Y-3.8816
X6.1961Y-3.0039
X6.2224Y-3.6594
X6.2323Y-3.0692
X6.2638Y-2.7835
X6.2677Y-3.8307
X6.2992Y-3.8031
X6.3307Y-2.937
X6.3661Y-2.7323
X6.374Y-3.7717
X6.374Y-3.9213
X6.3898Y-2.6299
X6.4055Y-2.5394
X6.4134Y-4.6772
X6.437Y-2.4488
X6.4665Y-2.3957
X6.4764Y-3.7795
X6.4803Y-3.6732
X6.4921Y-4.7992
X6.5394Y-3.8031
X6.5433Y-2.937
X6.5787Y-3.7992
X6.5906Y-2.8819
X6.5906Y-3.8583
X6.5906Y-3.8937
X6.6142Y-3.6811
X6.6181Y-3.7795
X6.622Y-4.9094
X6.622Y-5.3425
X6.6485Y-3.8298
X6.6496Y-3.8937
X6.6497Y-3.8613
X6.6535Y-3.6929
X6.6653Y-3.8032
X6.6654Y-4.2323
X6.6732Y-4.315
X6.6772Y-2.3217
X6.6884Y-3.7795
X6.6929Y-5.1772
X6.6962Y-3.6385
X6.7008Y-3.1181
X6.7047Y-3.5748
X6.7165Y-3.7559
X6.7244Y-3.1654
X6.7362Y-3.9016
X6.7441Y-4.1969
X6.748Y-3.5157
X6.7559Y-3.7316
X6.7598Y-3.8563
X6.7671Y-4.3419
X6.7682Y-3.4916
X6.7913Y-3.4675
X6.815Y-4.4606
X6.815Y-4.4921
X6.8268Y-4.4291
X6.8268Y-4.5315
X6.8701Y-4.5433
X6.874Y-3.8228
X6.878Y-4.3819
X6.8819Y-3.9961
X6.8868Y-3.8947
X6.8937Y-3.7677
X6.8976Y-4.5748
X6.9016Y-3.6811
X6.9016Y-4.1299
X6.9094Y-4.6102
X6.9173Y-2.8465
X6.9173Y-3.5433
X6.9173Y-3.8622
X6.9252Y-3.315
X6.9291Y-3.8937
X6.9409Y-2.7323
X6.9409Y-4.6378
X6.9488Y-4.374
X6.9528Y-3.9252
X6.9606Y-3.7205
X6.9665Y-3.6811
X6.9685Y-3.1063
X6.9685Y-3.8189
X6.9764Y-3.5709
X6.9803Y-4.6339
X7.0118Y-3.315
X7.0197Y-3.9409
X7.0197Y-4.6339
X7.0209Y-4.0157
X7.021Y-3.4912
X7.0256Y-3.5669
X7.0394Y-4.3701
X7.0423Y-3.7609
X7.0433Y-3.9685
X7.0472Y-3.4685
X7.0551Y-3.6772
X7.0709Y-4.626
X7.0728Y-4.0
X7.0787Y-4.3701
X7.081Y-3.4428
X7.0827Y-4.5472
X7.0837Y-3.7746
X7.0945Y-4.2244
X7.1043Y-3.5354
X7.1122Y-3.4921
X7.1142Y-4.3701
X7.1142Y-4.5472
X7.1181Y-3.7953
X7.1181Y-4.622
X7.1191Y-3.8307
X7.124Y-4.0156
X7.1427Y-3.8612
X7.1437Y-3.4921
X7.1457Y-4.5433
X7.1476Y-3.9606
X7.1496Y-4.3701
X7.1732Y-4.5315
X7.1732Y-4.6181
X7.1772Y-4.5
X7.1783Y-3.9969
X7.185Y-4.3701
X7.189Y-4.4016
X7.1969Y-3.8327
X7.1969Y-3.9606
X7.2003Y-3.7602
X7.2008Y-3.4291
X7.2047Y-3.7913
X7.2087Y-3.5197
X7.2126Y-4.126
X7.2165Y-4.4331
X7.2244Y-4.5945
X7.248Y-4.4646
X7.248Y-4.5669
X7.252Y-4.5197
X7.2874Y-3.4449
X7.3189Y-3.6654
X7.3241Y-3.998
X7.3396Y-3.8927
X7.3504Y-3.7717
X7.3588Y-4.0241
X7.3654Y-3.733
X7.3809Y-3.934
X7.3894Y-4.0604
X7.4025Y-3.8888
X7.4055Y-3.6693
X7.4134Y-2.5433
X7.4274Y-4.0473
X7.4331Y-3.6181
X7.4449Y-4.1299
X7.4548Y-3.7048
X7.4646Y-2.5039
X7.4724Y-5.5354
X7.5433Y-2.7323
X7.685Y-2.5433
X7.7008Y-4.0827
X7.7638Y-5.5472
X7.7864Y-3.0738
X7.8386Y-2.5394
X7.8425Y-3.0512
X7.878Y-3.0472
X7.9016Y-2.5236
X7.9213Y-3.0236
X7.9764Y-3.0472
X8.0394Y-2.748
X8.0827Y-2.748
X8.1535Y-2.6811
X8.1969Y-5.6496
X8.2835Y-2.6339
T2
X7.4213Y-5.3071
X7.4213Y-5.3543
X7.4213Y-5.4055
X7.4213Y-5.4488
X7.4685Y-5.3071
X7.4685Y-5.3543
X7.4685Y-5.4055
X7.4685Y-5.4488
T3
X5.9528Y-2.7008
X5.9528Y-2.752
X6.0039Y-2.7008
X6.0039Y-2.752
X6.0551Y-2.7008
X6.0551Y-2.752
X7.8628Y-2.6939
X7.8628Y-2.7451
X7.914Y-2.6939
X7.914Y-2.7451
X7.9652Y-2.6939
X7.9652Y-2.7451
T4
X5.6732Y-4.5856
X5.6732Y-4.7165
X5.7008Y-4.1299
X5.8307Y-2.9803
X5.8898Y-3.4409
X5.9843Y-4.1442
X5.9882Y-5.1063
X5.9921Y-3.3425
X6.4173Y-2.4882
X6.5787Y-4.3661
X6.7441Y-2.685
X6.748Y-2.8307
X6.7835Y-4.2559
X6.8189Y-4.2047
X6.8409Y-3.2913
X7.2049Y-4.1713
X7.216Y-2.6929
X7.2953Y-4.2835
X7.3346Y-3.693
X7.3497Y-2.5033
X7.3558Y-4.0605
X7.3937Y-3.7047
X7.4232Y-3.7776
X7.5079Y-3.9803
X7.7756Y-3.1614
X7.874Y-3.1063
X8.3321Y-3.8911
T7
X7.3271Y-5.6201
X7.3271Y-5.75
X7.4255Y-5.6201
X7.4255Y-5.75
X7.5239Y-5.6201
X7.5239Y-5.75
X7.9449Y-3.437
X7.9449Y-3.7362
T8
X5.5827Y-3.626
X5.5827Y-3.726
X5.5827Y-3.826
X5.5827Y-3.926
X5.5827Y-4.026
X5.5827Y-4.126
X5.5827Y-4.226
X5.5827Y-4.326
T9
X5.6398Y-2.4154
X5.7382Y-2.4154
X5.8366Y-2.4154
X5.935Y-2.4154
X6.0335Y-2.4154
X6.1319Y-2.4154
X7.5197Y-2.4134
X7.6181Y-2.4134
X7.7165Y-2.4134
X7.815Y-2.4134
X7.9134Y-2.4134
X8.0118Y-2.4134
X8.3504Y-3.4134
X8.3504Y-3.5118
X8.3504Y-3.6102
X8.3504Y-3.7087
T10
X5.1567Y-4.5325
X5.1835Y-3.6417
X5.1835Y-3.7417
X5.1835Y-3.8417
X5.1835Y-3.9417
X5.1835Y-4.0417
X5.1835Y-4.1417
X5.1835Y-4.2417
X5.1835Y-4.3417
X5.2567Y-4.5325
X5.2795Y-2.6756
X5.2795Y-2.7756
X5.2795Y-2.8756
X5.2795Y-2.9756
X5.2835Y-3.6417
X5.2835Y-3.7417
X5.2835Y-3.8417
X5.2835Y-3.9417
X5.2835Y-4.0417
X5.2835Y-4.1417
X5.2835Y-4.2417
X5.2835Y-4.3417
X5.3567Y-4.5325
X5.4567Y-4.5325
X5.6961Y-3.19
X5.7961Y-3.19
X5.8961Y-3.19
X5.9961Y-3.19
X6.0384Y-4.6811
X6.0402Y-4.8278
X6.0961Y-3.19
X6.1384Y-4.6811
X6.1402Y-4.8278
X6.1961Y-3.19
X6.2384Y-4.6811
X6.2402Y-4.8278
X6.4764Y-2.1156
X6.4764Y-2.2156
X6.6614Y-2.1126
X6.6614Y-2.2126
X6.7409Y-3.4095
X6.8409Y-3.4094
X6.8425Y-2.1126
X6.8425Y-2.2126
X6.9409Y-3.4094
X7.0236Y-2.1126
X7.0236Y-2.2126
X7.0409Y-3.4094
X7.2047Y-2.1126
X7.2047Y-2.2126
X7.6638Y-4.685
X7.6661Y-4.8346
X7.7638Y-4.685
X7.7661Y-4.8346
X7.8638Y-4.685
X7.8661Y-4.8346
X7.9472Y-3.19
X8.0472Y-3.19
X8.1472Y-3.19
X8.2313Y-4.1102
X8.2313Y-4.2638
X8.2313Y-4.4134
X8.2321Y-3.9579
X8.2472Y-3.19
X8.3313Y-4.1102
X8.3313Y-4.2638
X8.3313Y-4.4134
X8.3321Y-3.9579
X8.3472Y-3.19
X8.4313Y-4.1102
X8.4313Y-4.2638
X8.4313Y-4.4134
X8.4321Y-3.9579
X8.4472Y-3.19
T11
X8.2953Y-4.6441
X8.2953Y-4.8441
T12
X5.2992Y-5.626
X5.311Y-2.2008
X8.3346Y-2.189
X8.3386Y-5.6496
T5
G00X5.237Y-4.8067
M15
G01X5.2055Y-4.8067
M16
G05
G00X5.237Y-5.1469
M15
G01X5.2055Y-5.1469
M16
G05
G00X5.4075Y-4.8067
M15
G01X5.3642Y-4.8067
M16
G05
G00X5.4075Y-5.1469
M15
G01X5.3642Y-5.1469
M16
G05
T6
G00X7.9663Y-5.2571
M15
G01X7.9663Y-5.1547
M16
G05
G00X8.1278Y-5.0169
M15
G01X8.0411Y-5.0169
M16
G05
G00X8.1947Y-5.2492
M15
G01X8.1947Y-5.1626
M16
G05
M30
