%TF.GenerationSoftware,KiCad,Pcbnew,8.0.1*%
%TF.CreationDate,2024-06-22T21:51:16+08:00*%
%TF.ProjectId,car,6361722e-6b69-4636-9164-5f7063625858,rev?*%
%TF.SameCoordinates,Original*%
%TF.FileFunction,Other,Comment*%
%FSLAX46Y46*%
G04 Gerber Fmt 4.6, Leading zero omitted, Abs format (unit mm)*
G04 Created by KiCad (PCBNEW 8.0.1) date 2024-06-22 21:51:16*
%MOMM*%
%LPD*%
G01*
G04 APERTURE LIST*
%ADD10C,0.150000*%
%ADD11C,0.000000*%
G04 APERTURE END LIST*
D10*
X166910951Y-86389152D02*
X166910951Y-87198676D01*
X166910951Y-87198676D02*
X166863332Y-87293914D01*
X166863332Y-87293914D02*
X166815713Y-87341533D01*
X166815713Y-87341533D02*
X166720475Y-87389152D01*
X166720475Y-87389152D02*
X166577618Y-87389152D01*
X166577618Y-87389152D02*
X166482380Y-87341533D01*
X166910951Y-87008200D02*
X166815713Y-87055819D01*
X166815713Y-87055819D02*
X166625237Y-87055819D01*
X166625237Y-87055819D02*
X166529999Y-87008200D01*
X166529999Y-87008200D02*
X166482380Y-86960580D01*
X166482380Y-86960580D02*
X166434761Y-86865342D01*
X166434761Y-86865342D02*
X166434761Y-86579628D01*
X166434761Y-86579628D02*
X166482380Y-86484390D01*
X166482380Y-86484390D02*
X166529999Y-86436771D01*
X166529999Y-86436771D02*
X166625237Y-86389152D01*
X166625237Y-86389152D02*
X166815713Y-86389152D01*
X166815713Y-86389152D02*
X166910951Y-86436771D01*
X167815713Y-86389152D02*
X167815713Y-87198676D01*
X167815713Y-87198676D02*
X167768094Y-87293914D01*
X167768094Y-87293914D02*
X167720475Y-87341533D01*
X167720475Y-87341533D02*
X167625237Y-87389152D01*
X167625237Y-87389152D02*
X167482380Y-87389152D01*
X167482380Y-87389152D02*
X167387142Y-87341533D01*
X167815713Y-87008200D02*
X167720475Y-87055819D01*
X167720475Y-87055819D02*
X167529999Y-87055819D01*
X167529999Y-87055819D02*
X167434761Y-87008200D01*
X167434761Y-87008200D02*
X167387142Y-86960580D01*
X167387142Y-86960580D02*
X167339523Y-86865342D01*
X167339523Y-86865342D02*
X167339523Y-86579628D01*
X167339523Y-86579628D02*
X167387142Y-86484390D01*
X167387142Y-86484390D02*
X167434761Y-86436771D01*
X167434761Y-86436771D02*
X167529999Y-86389152D01*
X167529999Y-86389152D02*
X167720475Y-86389152D01*
X167720475Y-86389152D02*
X167815713Y-86436771D01*
X168672856Y-87008200D02*
X168577618Y-87055819D01*
X168577618Y-87055819D02*
X168387142Y-87055819D01*
X168387142Y-87055819D02*
X168291904Y-87008200D01*
X168291904Y-87008200D02*
X168244285Y-86912961D01*
X168244285Y-86912961D02*
X168244285Y-86532009D01*
X168244285Y-86532009D02*
X168291904Y-86436771D01*
X168291904Y-86436771D02*
X168387142Y-86389152D01*
X168387142Y-86389152D02*
X168577618Y-86389152D01*
X168577618Y-86389152D02*
X168672856Y-86436771D01*
X168672856Y-86436771D02*
X168720475Y-86532009D01*
X168720475Y-86532009D02*
X168720475Y-86627247D01*
X168720475Y-86627247D02*
X168244285Y-86722485D01*
X169529999Y-87008200D02*
X169434761Y-87055819D01*
X169434761Y-87055819D02*
X169244285Y-87055819D01*
X169244285Y-87055819D02*
X169149047Y-87008200D01*
X169149047Y-87008200D02*
X169101428Y-86912961D01*
X169101428Y-86912961D02*
X169101428Y-86532009D01*
X169101428Y-86532009D02*
X169149047Y-86436771D01*
X169149047Y-86436771D02*
X169244285Y-86389152D01*
X169244285Y-86389152D02*
X169434761Y-86389152D01*
X169434761Y-86389152D02*
X169529999Y-86436771D01*
X169529999Y-86436771D02*
X169577618Y-86532009D01*
X169577618Y-86532009D02*
X169577618Y-86627247D01*
X169577618Y-86627247D02*
X169101428Y-86722485D01*
X169958571Y-86151057D02*
X170006190Y-86103438D01*
X170006190Y-86103438D02*
X170101428Y-86055819D01*
X170101428Y-86055819D02*
X170339523Y-86055819D01*
X170339523Y-86055819D02*
X170434761Y-86103438D01*
X170434761Y-86103438D02*
X170482380Y-86151057D01*
X170482380Y-86151057D02*
X170529999Y-86246295D01*
X170529999Y-86246295D02*
X170529999Y-86341533D01*
X170529999Y-86341533D02*
X170482380Y-86484390D01*
X170482380Y-86484390D02*
X169910952Y-87055819D01*
X169910952Y-87055819D02*
X170529999Y-87055819D01*
X171387142Y-87055819D02*
X171387142Y-86055819D01*
X171387142Y-87008200D02*
X171291904Y-87055819D01*
X171291904Y-87055819D02*
X171101428Y-87055819D01*
X171101428Y-87055819D02*
X171006190Y-87008200D01*
X171006190Y-87008200D02*
X170958571Y-86960580D01*
X170958571Y-86960580D02*
X170910952Y-86865342D01*
X170910952Y-86865342D02*
X170910952Y-86579628D01*
X170910952Y-86579628D02*
X170958571Y-86484390D01*
X170958571Y-86484390D02*
X171006190Y-86436771D01*
X171006190Y-86436771D02*
X171101428Y-86389152D01*
X171101428Y-86389152D02*
X171291904Y-86389152D01*
X171291904Y-86389152D02*
X171387142Y-86436771D01*
X172291904Y-87055819D02*
X172291904Y-86055819D01*
X172291904Y-87008200D02*
X172196666Y-87055819D01*
X172196666Y-87055819D02*
X172006190Y-87055819D01*
X172006190Y-87055819D02*
X171910952Y-87008200D01*
X171910952Y-87008200D02*
X171863333Y-86960580D01*
X171863333Y-86960580D02*
X171815714Y-86865342D01*
X171815714Y-86865342D02*
X171815714Y-86579628D01*
X171815714Y-86579628D02*
X171863333Y-86484390D01*
X171863333Y-86484390D02*
X171910952Y-86436771D01*
X171910952Y-86436771D02*
X172006190Y-86389152D01*
X172006190Y-86389152D02*
X172196666Y-86389152D01*
X172196666Y-86389152D02*
X172291904Y-86436771D01*
X173196666Y-86389152D02*
X173196666Y-87055819D01*
X172958571Y-86008200D02*
X172720476Y-86722485D01*
X172720476Y-86722485D02*
X173339523Y-86722485D01*
X174244285Y-87055819D02*
X173672857Y-87055819D01*
X173958571Y-87055819D02*
X173958571Y-86055819D01*
X173958571Y-86055819D02*
X173863333Y-86198676D01*
X173863333Y-86198676D02*
X173768095Y-86293914D01*
X173768095Y-86293914D02*
X173672857Y-86341533D01*
X175196666Y-87055819D02*
X174625238Y-87055819D01*
X174910952Y-87055819D02*
X174910952Y-86055819D01*
X174910952Y-86055819D02*
X174815714Y-86198676D01*
X174815714Y-86198676D02*
X174720476Y-86293914D01*
X174720476Y-86293914D02*
X174625238Y-86341533D01*
X175530000Y-86055819D02*
X176196666Y-86055819D01*
X176196666Y-86055819D02*
X175768095Y-87055819D01*
X176577619Y-87055819D02*
X176577619Y-86055819D01*
X176577619Y-86436771D02*
X176672857Y-86389152D01*
X176672857Y-86389152D02*
X176863333Y-86389152D01*
X176863333Y-86389152D02*
X176958571Y-86436771D01*
X176958571Y-86436771D02*
X177006190Y-86484390D01*
X177006190Y-86484390D02*
X177053809Y-86579628D01*
X177053809Y-86579628D02*
X177053809Y-86865342D01*
X177053809Y-86865342D02*
X177006190Y-86960580D01*
X177006190Y-86960580D02*
X176958571Y-87008200D01*
X176958571Y-87008200D02*
X176863333Y-87055819D01*
X176863333Y-87055819D02*
X176672857Y-87055819D01*
X176672857Y-87055819D02*
X176577619Y-87008200D01*
X177387143Y-86055819D02*
X178053809Y-86055819D01*
X178053809Y-86055819D02*
X177625238Y-87055819D01*
X178482381Y-87055819D02*
X178672857Y-87055819D01*
X178672857Y-87055819D02*
X178768095Y-87008200D01*
X178768095Y-87008200D02*
X178815714Y-86960580D01*
X178815714Y-86960580D02*
X178910952Y-86817723D01*
X178910952Y-86817723D02*
X178958571Y-86627247D01*
X178958571Y-86627247D02*
X178958571Y-86246295D01*
X178958571Y-86246295D02*
X178910952Y-86151057D01*
X178910952Y-86151057D02*
X178863333Y-86103438D01*
X178863333Y-86103438D02*
X178768095Y-86055819D01*
X178768095Y-86055819D02*
X178577619Y-86055819D01*
X178577619Y-86055819D02*
X178482381Y-86103438D01*
X178482381Y-86103438D02*
X178434762Y-86151057D01*
X178434762Y-86151057D02*
X178387143Y-86246295D01*
X178387143Y-86246295D02*
X178387143Y-86484390D01*
X178387143Y-86484390D02*
X178434762Y-86579628D01*
X178434762Y-86579628D02*
X178482381Y-86627247D01*
X178482381Y-86627247D02*
X178577619Y-86674866D01*
X178577619Y-86674866D02*
X178768095Y-86674866D01*
X178768095Y-86674866D02*
X178863333Y-86627247D01*
X178863333Y-86627247D02*
X178910952Y-86579628D01*
X178910952Y-86579628D02*
X178958571Y-86484390D01*
X179530000Y-86484390D02*
X179434762Y-86436771D01*
X179434762Y-86436771D02*
X179387143Y-86389152D01*
X179387143Y-86389152D02*
X179339524Y-86293914D01*
X179339524Y-86293914D02*
X179339524Y-86246295D01*
X179339524Y-86246295D02*
X179387143Y-86151057D01*
X179387143Y-86151057D02*
X179434762Y-86103438D01*
X179434762Y-86103438D02*
X179530000Y-86055819D01*
X179530000Y-86055819D02*
X179720476Y-86055819D01*
X179720476Y-86055819D02*
X179815714Y-86103438D01*
X179815714Y-86103438D02*
X179863333Y-86151057D01*
X179863333Y-86151057D02*
X179910952Y-86246295D01*
X179910952Y-86246295D02*
X179910952Y-86293914D01*
X179910952Y-86293914D02*
X179863333Y-86389152D01*
X179863333Y-86389152D02*
X179815714Y-86436771D01*
X179815714Y-86436771D02*
X179720476Y-86484390D01*
X179720476Y-86484390D02*
X179530000Y-86484390D01*
X179530000Y-86484390D02*
X179434762Y-86532009D01*
X179434762Y-86532009D02*
X179387143Y-86579628D01*
X179387143Y-86579628D02*
X179339524Y-86674866D01*
X179339524Y-86674866D02*
X179339524Y-86865342D01*
X179339524Y-86865342D02*
X179387143Y-86960580D01*
X179387143Y-86960580D02*
X179434762Y-87008200D01*
X179434762Y-87008200D02*
X179530000Y-87055819D01*
X179530000Y-87055819D02*
X179720476Y-87055819D01*
X179720476Y-87055819D02*
X179815714Y-87008200D01*
X179815714Y-87008200D02*
X179863333Y-86960580D01*
X179863333Y-86960580D02*
X179910952Y-86865342D01*
X179910952Y-86865342D02*
X179910952Y-86674866D01*
X179910952Y-86674866D02*
X179863333Y-86579628D01*
X179863333Y-86579628D02*
X179815714Y-86532009D01*
X179815714Y-86532009D02*
X179720476Y-86484390D01*
X180244286Y-86055819D02*
X180863333Y-86055819D01*
X180863333Y-86055819D02*
X180530000Y-86436771D01*
X180530000Y-86436771D02*
X180672857Y-86436771D01*
X180672857Y-86436771D02*
X180768095Y-86484390D01*
X180768095Y-86484390D02*
X180815714Y-86532009D01*
X180815714Y-86532009D02*
X180863333Y-86627247D01*
X180863333Y-86627247D02*
X180863333Y-86865342D01*
X180863333Y-86865342D02*
X180815714Y-86960580D01*
X180815714Y-86960580D02*
X180768095Y-87008200D01*
X180768095Y-87008200D02*
X180672857Y-87055819D01*
X180672857Y-87055819D02*
X180387143Y-87055819D01*
X180387143Y-87055819D02*
X180291905Y-87008200D01*
X180291905Y-87008200D02*
X180244286Y-86960580D01*
X181815714Y-87055819D02*
X181244286Y-87055819D01*
X181530000Y-87055819D02*
X181530000Y-86055819D01*
X181530000Y-86055819D02*
X181434762Y-86198676D01*
X181434762Y-86198676D02*
X181339524Y-86293914D01*
X181339524Y-86293914D02*
X181244286Y-86341533D01*
X182720476Y-86055819D02*
X182244286Y-86055819D01*
X182244286Y-86055819D02*
X182196667Y-86532009D01*
X182196667Y-86532009D02*
X182244286Y-86484390D01*
X182244286Y-86484390D02*
X182339524Y-86436771D01*
X182339524Y-86436771D02*
X182577619Y-86436771D01*
X182577619Y-86436771D02*
X182672857Y-86484390D01*
X182672857Y-86484390D02*
X182720476Y-86532009D01*
X182720476Y-86532009D02*
X182768095Y-86627247D01*
X182768095Y-86627247D02*
X182768095Y-86865342D01*
X182768095Y-86865342D02*
X182720476Y-86960580D01*
X182720476Y-86960580D02*
X182672857Y-87008200D01*
X182672857Y-87008200D02*
X182577619Y-87055819D01*
X182577619Y-87055819D02*
X182339524Y-87055819D01*
X182339524Y-87055819D02*
X182244286Y-87008200D01*
X182244286Y-87008200D02*
X182196667Y-86960580D01*
X183625238Y-87008200D02*
X183530000Y-87055819D01*
X183530000Y-87055819D02*
X183339524Y-87055819D01*
X183339524Y-87055819D02*
X183244286Y-87008200D01*
X183244286Y-87008200D02*
X183196667Y-86960580D01*
X183196667Y-86960580D02*
X183149048Y-86865342D01*
X183149048Y-86865342D02*
X183149048Y-86579628D01*
X183149048Y-86579628D02*
X183196667Y-86484390D01*
X183196667Y-86484390D02*
X183244286Y-86436771D01*
X183244286Y-86436771D02*
X183339524Y-86389152D01*
X183339524Y-86389152D02*
X183530000Y-86389152D01*
X183530000Y-86389152D02*
X183625238Y-86436771D01*
%TO.C,H4*%
X214600000Y-143500000D02*
G75*
G02*
X209000000Y-143500000I-2800000J0D01*
G01*
X209000000Y-143500000D02*
G75*
G02*
X214600000Y-143500000I2800000J0D01*
G01*
%TO.C,H2*%
X214500000Y-55600000D02*
G75*
G02*
X208900000Y-55600000I-2800000J0D01*
G01*
X208900000Y-55600000D02*
G75*
G02*
X214500000Y-55600000I2800000J0D01*
G01*
%TO.C,H3*%
X137400000Y-142900000D02*
G75*
G02*
X131800000Y-142900000I-2800000J0D01*
G01*
X131800000Y-142900000D02*
G75*
G02*
X137400000Y-142900000I2800000J0D01*
G01*
D11*
%TO.C,J13*%
G36*
X213100000Y-118920000D02*
G01*
X212200000Y-118020000D01*
X213100000Y-117220000D01*
X213100000Y-118920000D01*
G37*
G36*
X213100000Y-124000000D02*
G01*
X212200000Y-123100000D01*
X213100000Y-122300000D01*
X213100000Y-124000000D01*
G37*
G36*
X215000000Y-118450000D02*
G01*
X213100000Y-118450000D01*
X213100000Y-117650000D01*
X215000000Y-117650000D01*
X215000000Y-118450000D01*
G37*
G36*
X215000000Y-123530000D02*
G01*
X213100000Y-123530000D01*
X213100000Y-122730000D01*
X215000000Y-122730000D01*
X215000000Y-123530000D01*
G37*
D10*
%TO.C,H1*%
X137700000Y-55900000D02*
G75*
G02*
X132100000Y-55900000I-2800000J0D01*
G01*
X132100000Y-55900000D02*
G75*
G02*
X137700000Y-55900000I2800000J0D01*
G01*
%TD*%
M02*
